<?xml version="1.0" standalone="no"?><!DOCTYPE svg PUBLIC "-//W3C//DTD SVG 1.1//EN" "http://www.w3.org/Graphics/SVG/1.1/DTD/svg11.dtd"><svg t="1557036858310" class="icon" style="" viewBox="0 0 1024 1024" version="1.1" xmlns="http://www.w3.org/2000/svg" p-id="15871" xmlns:xlink="http://www.w3.org/1999/xlink" width="64" height="64"><defs><style type="text/css"></style></defs><path d="M256.65641 0c-35.446154 0-64.328205 28.882051-64.328205 64.328205v895.34359c0 35.446154 28.882051 64.328205 64.328205 64.328205h638.030769c35.446154 0 64.328205-28.882051 64.328206-64.328205V256L703.015385 0h-446.358975z" fill="#E2E5E7" p-id="15872"></path><path d="M766.030769 256H957.702564L703.015385 0v191.671795c0 35.446154 28.882051 64.328205 63.015384 64.328205z" fill="#B0B7BD" p-id="15873"></path><path d="M957.702564 447.671795L766.030769 256H957.702564z" fill="#CAD1D8" p-id="15874"></path><path d="M830.358974 832.328205c0 17.066667-14.441026 31.507692-31.507692 31.507692H96.492308c-17.066667 0-31.507692-14.441026-31.507693-31.507692V512c0-17.066667 14.441026-31.507692 31.507693-31.507692h701.046154c17.066667 0 31.507692 14.441026 31.507692 31.507692v320.328205z" fill="#F15642" p-id="15875"></path><path d="M266.016821 767.868718c-15.753846 0-22.317949-15.753846-13.128206-26.25641l90.584616-120.779487h-76.14359c-22.317949 0-21.005128-31.507692 0-31.507693h102.4c19.692308 0 24.94359 18.379487 11.815385 32.820513l-86.646154 112.902564h82.707692c21.005128 0 22.317949 32.820513-2.625641 32.820513h-108.964102zM423.555282 606.391795c0-21.005128 34.133333-22.317949 34.133333 0v145.723077c0 21.005128-34.133333 22.317949-34.133333 0v-145.723077zM502.324513 606.391795c0-7.876923 6.564103-18.379487 17.066666-18.379487h59.076924c32.820513 0 63.015385 22.317949 63.015384 64.328205 0 40.697436-30.194872 63.015385-63.015384 63.015384h-42.010257v34.133334c0 11.815385-6.564103 17.066667-15.753846 17.066666-7.876923 0-17.066667-6.564103-17.066667-17.066666v-143.097436z m34.133333 14.441026v64.328205h42.010257c17.066667 0 30.194872-15.753846 30.194871-31.507693 0-18.379487-13.128205-32.820513-30.194871-32.820512h-42.010257z" fill="#FFFFFF" p-id="15876"></path><path d="M798.851282 863.835897H192.328205v31.507693h605.210257c17.066667 0 31.507692-14.441026 31.507692-31.507693v-31.507692c1.312821 17.066667-13.128205 31.507692-30.194872 31.507692z" fill="#CAD1D8" p-id="15877"></path></svg>